<mxfile host="Electron" agent="Mozilla/5.0 (Macintosh; Intel Mac OS X 10_15_7) AppleWebKit/537.36 (KHTML, like Gecko) draw.io/24.7.8 Chrome/128.0.6613.36 Electron/32.0.1 Safari/537.36" version="24.7.8">
  <diagram name="Page-1" id="YTvWYhiQwCI1SBikB5JT">
    <mxGraphModel dx="810" dy="573" grid="1" gridSize="10" guides="1" tooltips="1" connect="1" arrows="1" fold="1" page="1" pageScale="1" pageWidth="1600" pageHeight="900" math="0" shadow="0">
      <root>
        <mxCell id="0" />
        <mxCell id="1" parent="0" />
        <mxCell id="RmPfiGbyRmB0sXnVz50T-1" value="" style="rounded=1;whiteSpace=wrap;html=1;strokeWidth=2;fontStyle=1;fontSize=14;" parent="1" vertex="1">
          <mxGeometry x="360" y="210" width="200" height="250" as="geometry" />
        </mxCell>
        <mxCell id="RmPfiGbyRmB0sXnVz50T-2" value="&amp;nbsp; &amp;nbsp; &amp;nbsp; &amp;nbsp; &amp;nbsp; &amp;nbsp; Hardware" style="rounded=1;whiteSpace=wrap;html=1;fillColor=#f5f5f5;strokeColor=#666666;strokeWidth=2;fontStyle=1;fontSize=14;fontColor=#333333;" parent="1" vertex="1">
          <mxGeometry x="375" y="387" width="170" height="63" as="geometry" />
        </mxCell>
        <mxCell id="RmPfiGbyRmB0sXnVz50T-4" value="CVM" style="rounded=1;whiteSpace=wrap;html=1;fillColor=#d5e8d4;strokeColor=#82b366;strokeWidth=2;fontStyle=1;fontSize=14;" parent="1" vertex="1">
          <mxGeometry x="375" y="221" width="80" height="110" as="geometry" />
        </mxCell>
        <mxCell id="RmPfiGbyRmB0sXnVz50T-5" value="Hypervisor" style="rounded=1;whiteSpace=wrap;html=1;fillColor=#f8cecc;strokeColor=#b85450;strokeWidth=2;fontStyle=1;fontSize=14;" parent="1" vertex="1">
          <mxGeometry x="375" y="339" width="170" height="40" as="geometry" />
        </mxCell>
        <mxCell id="RmPfiGbyRmB0sXnVz50T-6" value="CVM" style="rounded=1;whiteSpace=wrap;html=1;fillColor=#d5e8d4;strokeColor=#82b366;strokeWidth=2;fontStyle=1;fontSize=14;" parent="1" vertex="1">
          <mxGeometry x="465" y="221" width="80" height="110" as="geometry" />
        </mxCell>
        <mxCell id="Y04_oYe21r4ZlVcI8CNz-4" value="" style="group" vertex="1" connectable="0" parent="1">
          <mxGeometry x="387" y="392" width="50" height="50" as="geometry" />
        </mxCell>
        <mxCell id="Y04_oYe21r4ZlVcI8CNz-3" value="" style="rounded=1;whiteSpace=wrap;html=1;fillColor=#d5e8d4;strokeColor=#82b366;strokeWidth=2;fontStyle=1;fontSize=14;" vertex="1" parent="Y04_oYe21r4ZlVcI8CNz-4">
          <mxGeometry width="50" height="50" as="geometry" />
        </mxCell>
        <mxCell id="Y04_oYe21r4ZlVcI8CNz-2" value="" style="pointerEvents=1;shadow=0;dashed=0;html=1;strokeColor=none;fillColor=#000000;labelPosition=center;verticalLabelPosition=bottom;verticalAlign=top;align=center;outlineConnect=0;shape=mxgraph.veeam.cpu;" vertex="1" parent="Y04_oYe21r4ZlVcI8CNz-4">
          <mxGeometry x="7.600000000000023" y="7.050000000000011" width="34.8" height="35.9" as="geometry" />
        </mxCell>
      </root>
    </mxGraphModel>
  </diagram>
</mxfile>
